#!OML:ASF H:\Male1\Project 1\Capture day 1\Session 1\Male1.ASF
:FULLY-SPECIFIED
:DEGREES
676
root -5.22353 15.4578 2.64809 179.653 138.185 -182.381
lowerback 6.04831 2.1986 6.69393
upperback 5.54097 3.2425 1.4764
thorax 2.65099 1.84983 -2.31966
lowerneck -0.247098 7.64077 15.0616
upperneck 13.4398 11.7206 -14.4276
head 5.80171 5.83357 -6.34967
rclavicle 4.4329e-014 -3.26007e-014
rhumerus -29.9552 -15.4261 -78.6083
rradius 37.6641
rwrist -21.4987
rhand -20.4105 3.60834
rfingers 7.12502
rthumb 5.9435 -26.2883
lclavicle 4.4329e-014 -3.26007e-014
lhumerus -32.4033 18.775 76.8611
lradius 23.0955
lwrist -5.88143
lhand -24.1205 13.5554
lfingers 7.12502
lthumb 2.36098 43.522
rfemur -1.05457 1.52879 26.2113
rtibia 25.2269
rfoot -29.1315 -24.1145
rtoes -18.4004
lfemur -23.9435 -1.29699 -23.1548
ltibia 47.2205
lfoot -17.0881 8.98158
ltoes 0.180751
677
root -5.17606 15.4809 2.73833 179.779 136.695 -182.21
lowerback 5.87929 2.34966 6.90294
upperback 5.55423 3.44071 1.27416
thorax 2.80551 1.96538 -2.639
lowerneck -0.411388 7.42281 15.2964
upperneck 13.2686 11.3838 -14.5193
head 5.7428 5.67134 -6.44369
rclavicle -3.93594e-014 2.54444e-014
rhumerus -30.1979 -15.301 -79.1365
rradius 38.4657
rwrist -21.8188
rhand -19.6815 3.70454
rfingers 7.12502
rthumb 6.64727 -26.1711
lclavicle -3.93594e-014 2.54444e-014
lhumerus -32.5351 18.7954 76.5835
lradius 22.5602
lwrist -6.29506
lhand -23.864 13.1724
lfingers 7.12502
lthumb 2.60868 43.1362
rfemur 0.00179333 1.70351 26.4328
rtibia 24.1156
rfoot -30.4445 -24.7535
rtoes -15.3749
lfemur -23.9912 -1.26322 -23.4625
ltibia 44.8689
lfoot -16.6863 10.5594
ltoes -8.11043
678
root -5.12697 15.4911 2.82351 179.677 135.163 -182.296
lowerback 5.78638 2.3999 7.19993
upperback 5.58983 3.51334 1.16583
thorax 2.93114 2.02013 -2.90986
lowerneck -0.710182 7.27074 15.3285
upperneck 13.2144 11.1243 -14.495
head 5.73682 5.53597 -6.45352
rclavicle -3.02153e-014 -1.59028e-014
rhumerus -30.2692 -14.9674 -79.7095
rradius 39.1049
rwrist -22.0707
rhand -20.0935 3.59318
rfingers 7.12502
rthumb 6.24954 -26.2946
lclavicle -3.02153e-014 -1.59028e-014
lhumerus -32.731 19.4049 76.0735
lradius 22.144
lwrist -7.91104
lhand -22.3394 13.5806
lfingers 7.12502
lthumb 4.08099 43.5212
rfemur 1.07174 1.81272 26.8731
rtibia 23.024
rfoot -31.6575 -25.6141
rtoes -14.232
lfemur -23.9997 -1.14373 -23.5344
ltibia 42.6264
lfoot -16.4553 11.5902
ltoes -9.51582
679
root -5.07325 15.5092 2.90505 179.637 133.659 -182.29
lowerback 5.72566 2.36838 7.27876
upperback 5.58999 3.47218 1.13032
thorax 2.96888 2.0054 -2.98621
lowerneck -0.911041 7.16222 15.1653
upperneck 13.1846 10.9571 -14.4956
head 5.72582 5.44001 -6.43492
rclavicle 3.51849e-014 -2.14687e-014
rhumerus -30.2648 -14.3376 -80.23
rradius 39.5605
rwrist -22.2552
rhand -20.4951 3.48645
rfingers 7.12502
rthumb 5.8618 -26.4125
lclavicle 3.51849e-014 -2.14687e-014
lhumerus -33.1885 19.9117 75.8068
lradius 22.0518
lwrist -8.2254
lhand -21.7221 13.5056
lfingers 7.12502
lthumb 4.67714 43.434
rfemur 2.15833 1.8401 27.2082
rtibia 21.8896
rfoot -32.8281 -26.4309
rtoes -13.4363
lfemur -23.8878 -2.07531 -23.6267
ltibia 40.4617
lfoot -17.1452 13.1292
ltoes -4.01909
680
root -5.01557 15.5262 2.98657 179.94 132.271 -182.051
lowerback 5.54226 2.36973 7.03785
upperback 5.51777 3.45372 1.10156
thorax 2.9774 1.98666 -2.87563
lowerneck -1.13457 7.10931 15.097
upperneck 13.2288 10.8905 -14.6397
head 5.77087 5.39022 -6.47041
rclavicle 3.97569e-016 -1.74931e-014
rhumerus -30.2492 -13.7633 -80.6243
rradius 39.7766
rwrist -22.444
rhand -19.9253 4.041
rfingers 7.12502
rthumb 6.41192 -25.8419
lclavicle 3.97569e-016 -1.74931e-014
lhumerus -33.7966 20.5052 75.572
lradius 22.1092
lwrist -8.44554
lhand -21.3868 13.026
lfingers 7.12502
lthumb 5.00089 42.9469
rfemur 3.15607 2.0385 27.3889
rtibia 20.6368
rfoot -34.1082 -26.9096
rtoes -9.70417
lfemur -24.0124 -2.54986 -23.8859
ltibia 38.5028
lfoot -17.98 14.6288
ltoes -0.163905
681
root -4.94091 15.5371 3.071 180.101 130.942 -181.945
lowerback 5.24406 2.36726 6.84728
upperback 5.51721 3.42043 1.11634
thorax 3.12512 1.96765 -2.73895
lowerneck -1.40625 7.08363 15.0498
upperneck 13.2104 10.8509 -14.816
head 5.81249 5.35035 -6.51551
rclavicle -6.89783e-014 6.36111e-015
rhumerus -30.1295 -13.2906 -80.9344
rradius 39.7221
rwrist -22.575
rhand -19.0957 4.81644
rfingers 7.12502
rthumb 7.21277 -25.0406
lclavicle -6.89783e-014 6.36111e-015
lhumerus -34.2717 21.0732 75.4557
lradius 22.0715
lwrist -8.58132
lhand -21.2148 12.3195
lfingers 7.12502
lthumb 5.16699 42.2365
rfemur 4.34017 2.31144 27.6738
rtibia 19.223
rfoot -35.5401 -27.3234
rtoes -5.26043
lfemur -24.0815 -3.02988 -24.0919
ltibia 36.7204
lfoot -18.4943 16.5598
ltoes 1.1503
682
root -4.86541 15.541 3.15323 179.947 129.364 -182.226
lowerback 5.02864 2.2965 6.87751
upperback 5.4757 3.31172 1.17103
thorax 3.18951 1.91462 -2.6885
lowerneck -1.60545 7.01354 15.0352
upperneck 13.0547 10.7303 -14.9313
head 5.78497 5.27837 -6.55491
rclavicle -1.35372e-013 4.21423e-014
rhumerus -30.0795 -12.9032 -81.236
rradius 39.5954
rwrist -22.5722
rhand -19.4852 4.50968
rfingers 7.12502
rthumb 6.83681 -25.3599
lclavicle -1.35372e-013 4.21423e-014
lhumerus -34.6765 21.5686 75.3037
lradius 22.097
lwrist -9.16046
lhand -20.4307 12.1589
lfingers 7.12502
lthumb 5.92403 42.0561
rfemur 5.55355 2.38119 28.273
rtibia 17.6967
rfoot -36.686 -28.3663
rtoes -3.76989
lfemur -24.2105 -3.80973 -24.0318
ltibia 35.1689
lfoot -18.9225 18.4401
ltoes 2.32128
683
root -4.78374 15.5399 3.23249 179.665 127.774 -182.637
lowerback 4.82653 2.24843 7.0617
upperback 5.41671 3.2389 1.19971
thorax 3.24418 1.88474 -2.75204
lowerneck -1.79935 6.94048 14.9376
upperneck 12.931 10.586 -14.857
head 5.74828 5.19968 -6.51934
rclavicle 2.44505e-014 -7.95139e-015
rhumerus -30.1019 -12.6032 -81.4847
rradius 39.4482
rwrist -22.4931
rhand -20.1344 3.70664
rfingers 7.12502
rthumb 6.21007 -26.1823
lclavicle 2.44505e-014 -7.95139e-015
lhumerus -35.1168 21.9234 75.1684
lradius 22.353
lwrist -9.84971
lhand -19.2233 12.2795
lfingers 7.12502
lthumb 7.0896 42.1407
rfemur 6.85251 2.23562 28.8977
rtibia 15.9665
rfoot -37.1059 -29.9415
rtoes -4.65506
lfemur -24.313 -4.73639 -23.901
ltibia 33.8076
lfoot -19.4924 20.3169
ltoes 3.04509
684
root -4.70236 15.5308 3.31151 179.141 126.149 -183.286
lowerback 4.73203 2.18361 7.23608
upperback 5.30688 3.15306 1.32516
thorax 3.17684 1.84107 -2.71737
lowerneck -1.93732 6.83534 14.7282
upperneck 12.8748 10.4174 -14.7495
head 5.71085 5.10869 -6.45902
rclavicle -8.92543e-014 4.21423e-014
rhumerus -30.2066 -12.4817 -81.5132
rradius 39.1584
rwrist -22.3327
rhand -19.9753 3.45875
rfingers 7.12502
rthumb 6.36363 -26.4257
lclavicle -8.92543e-014 4.21423e-014
lhumerus -35.7164 22.2036 75.1268
lradius 22.7631
lwrist -10.0828
lhand -18.2368 11.9814
lfingers 7.12502
lthumb 8.04181 41.8084
rfemur 8.28032 2.04062 29.6839
rtibia 14.1091
rfoot -37.723 -31.3282
rtoes -4.99619
lfemur -24.4027 -5.66101 -23.6242
ltibia 32.5934
lfoot -20.3356 22.1062
ltoes 3.85614
685
root -4.61639 15.5152 3.38802 178.551 124.66 -183.935
lowerback 4.70349 2.13863 7.28332
upperback 5.18844 3.0964 1.48636
thorax 3.05588 1.805 -2.5792
lowerneck -1.91503 6.68001 14.5641
upperneck 12.7332 10.2164 -14.8229
head 5.62575 5.00367 -6.47486
rclavicle 5.56597e-015 5.56597e-015
rhumerus -30.4088 -12.3807 -81.4216
rradius 38.7397
rwrist -21.9996
rhand -19.5685 3.57747
rfingers 7.12502
rthumb 6.75633 -26.2947
lclavicle 5.56597e-015 5.56597e-015
lhumerus -36.3613 22.4925 75.134
lradius 23.1499
lwrist -9.97793
lhand -17.5572 11.48
lfingers 7.12502
lthumb 8.69765 41.2808
rfemur 9.83208 1.83663 30.3931
rtibia 12.1861
rfoot -38.6428 -32.1696
rtoes -3.96372
lfemur -24.4123 -6.50774 -23.3801
ltibia 31.4787
lfoot -21.5524 23.7972
ltoes 5.27706
686
root -4.52028 15.4988 3.4608 178.213 123.398 -184.284
lowerback 4.58452 2.18538 7.22118
upperback 5.13619 3.14918 1.53257
thorax 3.06595 1.82761 -2.49349
lowerneck -1.87833 6.49396 14.4589
upperneck 12.4583 9.95797 -14.9308
head 5.4935 4.87232 -6.51613
rclavicle 4.13472e-014 -1.11319e-014
rhumerus -30.5949 -12.2405 -81.3995
rradius 38.2784
rwrist -21.6147
rhand -19.3008 3.73467
rfingers 7.12502
rthumb 7.01476 -26.1291
lclavicle 4.13472e-014 -1.11319e-014
lhumerus -36.7131 22.6604 75.2016
lradius 23.3853
lwrist -9.68889
lhand -17.0516 11.0932
lfingers 7.12502
lthumb 9.18554 40.8732
rfemur 11.4326 1.57754 30.783
rtibia 10.184
rfoot -38.9957 -32.9438
rtoes -3.77509
lfemur -24.321 -7.26419 -23.3602
ltibia 30.4876
lfoot -22.9442 25.2554
ltoes 7.54959
687
root -4.41483 15.4788 3.53499 177.785 122.241 -184.74
lowerback 4.47569 2.32608 7.22633
upperback 5.09947 3.32943 1.53375
thorax 3.10648 1.91822 -2.49164
lowerneck -2.0977 6.26381 14.4163
upperneck 12.2463 9.59945 -14.9878
head 5.41072 4.68527 -6.55142
rclavicle 1.23246e-014 1.82882e-014
rhumerus -30.7241 -12.385 -81.3612
rradius 37.737
rwrist -21.3272
rhand -19.2792 3.54032
rfingers 7.12502
rthumb 7.03566 -26.3228
lclavicle 1.23246e-014 1.82882e-014
lhumerus -36.8147 22.6612 75.3406
lradius 23.5714
lwrist -9.50375
lhand -16.6668 10.9239
lfingers 7.12502
lthumb 9.55682 40.6872
rfemur 13.0104 0.470341 30.9957
rtibia 8.24492
rfoot -37.9448 -33.3843
rtoes -5.41161
lfemur -24.1473 -8.20786 -23.2465
ltibia 29.6462
lfoot -24.5133 26.5227
ltoes 10.2285
688
root -4.30231 15.4552 3.61075 177.138 121.059 -185.481
lowerback 4.22886 2.42683 7.33969
upperback 5.12354 3.44423 1.55014
thorax 3.28871 1.98572 -2.52327
lowerneck -2.51517 6.12927 14.2715
upperneck 12.0864 9.33527 -14.881
head 5.38159 4.53725 -6.50026
rclavicle -1.17283e-014 -3.02153e-014
rhumerus -30.5958 -12.5691 -81.3944
rradius 36.961
rwrist -21.0415
rhand -19.4021 3.2377
rfingers 7.12502
rthumb 6.91697 -26.6293
lclavicle -1.17283e-014 -3.02153e-014
lhumerus -36.7558 22.7285 75.4913
lradius 23.7556
lwrist -9.52919
lhand -16.3808 10.6794
lfingers 7.12502
lthumb 9.83279 40.4298
rfemur 14.3669 -0.646849 31.272
rtibia 6.7207
rfoot -36.9669 -33.5968
rtoes -7.04313
lfemur -23.9569 -9.2079 -22.976
ltibia 28.9514
lfoot -25.8678 27.6398
ltoes 12.3886
689
root -4.18457 15.4297 3.68685 176.585 119.984 -186.148
lowerback 3.60262 2.4858 7.5213
upperback 5.34538 3.46384 1.39849
thorax 3.90016 2.03061 -2.73758
lowerneck -2.93602 6.11757 14.0854
upperneck 11.7241 9.17952 -14.5216
head 5.29676 4.44994 -6.34669
rclavicle -4.96962e-014 3.89618e-014
rhumerus -30.0119 -12.8629 -81.7367
rradius 35.9129
rwrist -20.4008
rhand -19.0126 3.20633
rfingers 7.12502
rthumb 7.29301 -26.648
lclavicle -4.96962e-014 3.89618e-014
lhumerus -36.3053 22.7793 75.5348
lradius 23.848
lwrist -9.50797
lhand -16.0548 10.3482
lfingers 7.12502
lthumb 10.1473 40.0835
rfemur 15.3978 -1.63402 31.4276
rtibia 5.8121
rfoot -36.4601 -33.316
rtoes -7.58491
lfemur -23.7107 -9.92777 -22.7862
ltibia 28.4523
lfoot -26.7834 28.3864
ltoes 14.2193
